Coordinates
version=1
nRows=9
nColumns=36
inDegrees=yes

Units are S.I. units (second, meters, Newtons, ...)
If the header above contains a line with 'inDegrees', this indicates whether rotational values are in degrees (yes) or radians (no).

endheader
time	pelvis_tilt	pelvis_list	pelvis_rotation	pelvis_tx	pelvis_ty	pelvis_tz	hip_flexion_r	hip_adduction_r	hip_rotation_r	knee_angle_r	knee_angle_r_beta	ankle_angle_r	subtalar_angle_r	mtp_angle_r	hip_flexion_l	hip_adduction_l	hip_rotation_l	knee_angle_l	knee_angle_l_beta	ankle_angle_l	subtalar_angle_l	mtp_angle_l	lumbar_extension	lumbar_bending	lumbar_rotation	arm_flex_r	arm_add_r	arm_rot_r	elbow_flex_r	pro_sup_r	arm_flex_l	arm_add_l	arm_rot_l	elbow_flex_l	pro_sup_l
      7.43333330	    -41.26248407	     -1.68460415	     -0.27898648	      0.64055546	      0.53715703	      0.12234560	    111.56684496	    -30.45297384	     -6.41568729	    103.99834184	      1.81511348	     34.40742214	      7.17310196	     -7.49999987	    117.30369904	    -21.74221373	      4.83138915	     99.64449881	      1.73912459	     35.67859026	     11.74193384	     -7.49999987	    -28.52002974	      5.88189599	     17.53629756	    102.99100603	    -17.24220884	     82.72500605	    119.04761813	     60.71338047	     90.12304115	     12.95064737	     64.88651830	    108.32555512	    100.15366077
      7.45000000	    -41.32216298	     -1.68289560	     -0.34025820	      0.64650357	      0.54179939	      0.12598689	    111.25296433	    -30.28510067	     -6.65779952	    103.51380518	      1.80665672	     34.28809224	      7.27483429	     -7.49999987	    117.10572458	    -21.64194690	      4.78654988	     99.19494886	      1.73127846	     35.62893106	     11.65531811	     -7.49999987	    -28.35966778	      5.62784942	     17.70871727	    102.29348204	    -16.60129460	     83.07131401	    119.15889103	     60.70881464	     90.21002543	     12.95868110	     64.67999336	    108.51741293	    100.17247826
      7.46666670	    -41.68140578	     -1.71910254	     -0.49441608	      0.63976981	      0.54857736	      0.12907334	    111.03566757	    -29.86816949	     -7.05544160	    102.71752727	      1.79275905	     33.88403227	      7.10972817	     -7.49999987	    117.10070601	    -21.68787561	      4.72135828	     98.54714753	      1.71997219	     35.23014271	     11.24800346	     -7.49999987	    -27.98042629	      5.78789385	     17.01769057	    100.93034250	    -14.34307178	     80.88485089	    115.23672118	     60.74372203	     88.66033249	     10.28350378	     63.04663168	    109.86659769	    100.63722990
      7.48333330	    -42.12438094	     -1.84843447	     -0.69653922	      0.65190481	      0.56313936	      0.13042875	    110.18535613	    -29.41635478	     -7.86077417	    101.38151313	      1.76944120	     33.49852424	      6.95861344	     -7.49999987	    116.63503023	    -21.76272734	      4.65081688	     97.42089230	      1.70031533	     35.03672606	     11.10619030	     -7.49999987	    -27.76008718	      5.65653997	     16.96776551	     99.37583358	    -13.50586339	     81.38861571	    115.88466430	     60.97768675	     86.11781883	     10.14280256	     63.82334811	    110.27120674	     99.95242812
      7.50000000	    -42.54370462	     -1.86827078	     -0.88221964	      0.63658355	      0.56652830	      0.13415938	    109.55892891	    -28.82951494	     -8.48212661	     99.95677434	      1.74457482	     32.85237289	      6.73996657	     -7.49999987	    116.10969171	    -21.97375296	      4.36916628	     96.17940266	      1.67864725	     34.60685094	     11.04104513	     -7.49999987	    -27.52170709	      5.39318172	     17.04201324	     99.54357331	    -13.24185277	     79.85736972	    117.00077876	     60.94481602	     86.65181850	     10.53056507	     64.72062264	    111.32839147	     98.72624277
      7.51666670	    -42.86105955	     -1.83980235	     -1.00829796	      0.62999510	      0.57390547	      0.12349895	    108.92610906	    -28.47650513	     -9.15259792	     98.38116890	      1.71707532	     32.14822200	      6.47118339	     -7.49999987	    115.43502288	    -21.96409921	      3.90143891	     94.84509871	      1.65535925	     34.03762104	     10.70591562	     -7.49999987	    -27.28407342	      5.04302921	     17.27145304	    100.91323675	    -15.06792491	     79.72680808	    119.08172580	     60.94342352	     88.46916914	     12.53064771	     63.81236088	    109.85149244	     97.91103806
      7.53333330	    -43.13015840	     -1.71610393	     -1.10965557	      0.63095552	      0.58004812	      0.11800673	    108.34133598	    -28.18602851	     -9.68609211	     96.81122335	      1.68967460	     31.34784431	      6.11490622	     -7.49999987	    114.64041146	    -21.80399960	      3.36367394	     93.52937330	      1.63239551	     33.35136818	     10.22156426	     -7.49999987	    -26.64104429	      5.21844926	     16.99402019	    101.19966523	    -15.30267840	     80.12046865	    119.69088984	     60.83453877	     87.25491647	     12.13736779	     61.54085409	    111.19804375	    104.02773387
      7.55000000	    -43.25910910	     -1.59111321	     -1.13578021	      0.62328089	      0.58491367	      0.11326232	    107.83885264	    -28.02393255	    -10.06521228	     95.38608536	      1.66480125	     30.53700677	      5.82356164	     -7.49999987	    113.85219650	    -21.46099192	      2.84310242	     92.31487952	      1.61119860	     32.71302420	      9.78772542	     -7.49999987	    -26.03339850	      5.48603963	     16.69827502	    101.83388928	    -14.85684272	     79.01166596	    121.19573523	     60.83703532	     87.07241764	     13.19678591	     61.40109997	    112.12485793	    104.06425113
      7.56666670	    -42.84941339	     -1.43232276	     -1.05456458	      0.63634747	      0.59690011	      0.12244388	    106.52265095	    -27.76027660	    -10.31087346	     93.90122065	      1.63888547	     30.25600634	      5.58824610	     -7.49999987	    112.21259492	    -21.09803240	      2.32796089	     90.90898637	      1.58666113	     32.71437078	      9.35917362	     -7.49999987	    -25.98490573	      5.16857592	     16.99143197	    101.26658263	    -14.10145037	     78.80591301	    121.14079783	     60.85623795	     86.33171410	     12.76128611	     61.72211616	    112.37532009	    102.40328172
